<svg width="128" height="128" viewBox="0 0 128 128" fill="none" xmlns="http://www.w3.org/2000/svg">
<path d="M111.1 43.2002C118.279 43.2002 124.1 37.3799 124.1 30.2002C124.1 23.0205 118.279 17.2002 111.1 17.2002C103.92 17.2002 98.0996 23.0205 98.0996 30.2002C98.0996 37.3799 103.92 43.2002 111.1 43.2002Z" fill="#CA8D4F"/>
<path d="M108.3 104.8H106.3C95.6 104.8 87 96.0999 87 85.4999V54.8999C87 51.7999 89.5 49.3999 92.5 49.3999H122.1C125.2 49.3999 127.6 51.8999 127.6 54.8999V85.3999C127.7 96.0999 119 104.8 108.3 104.8Z" fill="#CA8D4F"/>
<path d="M70.2996 42.9C80.6273 42.9 88.9996 34.5277 88.9996 24.2C88.9996 13.8723 80.6273 5.5 70.2996 5.5C59.9719 5.5 51.5996 13.8723 51.5996 24.2C51.5996 34.5277 59.9719 42.9 70.2996 42.9Z" fill="#EAB37B"/>
<path d="M70.3992 122.1H67.1992C50.3992 122.1 36.6992 108.4 36.6992 91.6V54.1C36.6992 51.6 38.7992 49.5 41.2992 49.5H96.2992C98.7992 49.5 100.899 51.6 100.899 54.1V91.6C100.899 108.4 87.2992 122.1 70.3992 122.1Z" fill="#EAB37B"/>
<path d="M59.4996 97.2002H6.49961C2.99961 97.2002 0.0996094 94.3002 0.0996094 90.8002V38.6002C0.0996094 35.1002 2.99961 32.2002 6.49961 32.2002H59.4996C62.9996 32.2002 65.8996 35.1002 65.8996 38.6002V90.8002C65.8996 94.3002 63.0996 97.2002 59.4996 97.2002Z" fill="#BB844C"/>
<path d="M29.4 52.7002H19V47.2002H46.5V52.7002H36.1V83.0002H29.5V52.7002H29.4Z" fill="white"/>
<path opacity="0.2" d="M65.9992 49.5V90.7C65.9992 94.2 63.0992 97.1 59.5992 97.1H37.1992L38.6992 102.8H64.9992C68.4992 102.8 71.3992 99.9 71.3992 96.4V49.5H65.9992Z" fill="black"/>
</svg>
